<svg width="63" height="102" viewBox="0 0 63 102" fill="none" xmlns="http://www.w3.org/2000/svg">
<path d="M5.63086 95L2.31055 82.168L1.10938 82.0215V80.7812H5.71875V82.0215L4.24414 82.2461L6.09961 90.0684L6.5293 91.8945L6.58789 91.9043L7.1543 90.0781L10.0156 80.7812H11.7051L14.5957 90.0781L15.1523 92.0117H15.2109L15.7188 90.0781L17.5547 82.2461L15.9629 82.0215V80.7812H20.4941V82.0215L19.3711 82.168L16.1875 95H14.3613L11.2754 85.1562L10.8848 83.7207H10.8262L10.4453 85.1562L7.34961 95H5.63086ZM21.6855 95V93.7695L23.2773 93.4961V81.2793L21.6855 81.0059V79.7656H25.2012V85.8398C25.5658 85.332 26.0117 84.9382 26.5391 84.6582C27.0664 84.3783 27.6523 84.2383 28.2969 84.2383C29.4297 84.2383 30.3086 84.5768 30.9336 85.2539C31.5586 85.931 31.8711 86.9727 31.8711 88.3789V93.4961L33.4629 93.7695V95H28.3555V93.7695L29.9473 93.4961V88.3594C29.9473 87.487 29.7585 86.8424 29.3809 86.4258C29.0098 86.0091 28.4531 85.8008 27.7109 85.8008C27.1836 85.8008 26.7018 85.9277 26.2656 86.1816C25.8359 86.429 25.4811 86.7676 25.2012 87.1973V93.4961L26.793 93.7695V95H21.6855ZM39.4395 95.2051C38.4629 95.2051 37.6133 94.9837 36.8906 94.541C36.168 94.0918 35.6081 93.4701 35.2109 92.6758C34.8203 91.8815 34.625 90.9635 34.625 89.9219V89.4922C34.625 88.4896 34.8301 87.5944 35.2402 86.8066C35.6569 86.0124 36.207 85.3874 36.8906 84.9316C37.5807 84.4694 38.3327 84.2383 39.1465 84.2383C40.097 84.2383 40.8913 84.4336 41.5293 84.8242C42.1738 85.2148 42.6589 85.765 42.9844 86.4746C43.3099 87.1777 43.4727 88.0078 43.4727 88.9648V90.166H36.6172L36.5879 90.2148C36.6009 90.8919 36.7181 91.4941 36.9395 92.0215C37.1673 92.5423 37.4928 92.9525 37.916 93.252C38.3392 93.5514 38.847 93.7012 39.4395 93.7012C40.0905 93.7012 40.6602 93.61 41.1484 93.4277C41.6432 93.2389 42.0697 92.9818 42.4277 92.6562L43.1797 93.9062C42.8021 94.2708 42.3008 94.5801 41.6758 94.834C41.0573 95.0814 40.3118 95.2051 39.4395 95.2051ZM36.6758 88.6621H41.5488V88.4082C41.5488 87.9004 41.4577 87.4479 41.2754 87.0508C41.0996 86.6471 40.8327 86.3314 40.4746 86.1035C40.123 85.8691 39.6803 85.752 39.1465 85.752C38.7168 85.752 38.3262 85.8789 37.9746 86.1328C37.623 86.3802 37.3333 86.7188 37.1055 87.1484C36.8776 87.5781 36.7279 88.0664 36.6562 88.6133L36.6758 88.6621ZM48.5508 95.2051C47.4505 95.2051 46.6139 94.9382 46.041 94.4043C45.4681 93.8639 45.1816 93.1055 45.1816 92.1289C45.1816 91.4583 45.3639 90.8757 45.7285 90.3809C46.0996 89.8796 46.6335 89.4922 47.3301 89.2188C48.0267 88.9388 48.86 88.7988 49.8301 88.7988H51.7148V87.7637C51.7148 87.1257 51.5195 86.6309 51.1289 86.2793C50.7448 85.9277 50.2012 85.752 49.498 85.752C49.0553 85.752 48.6712 85.8073 48.3457 85.918C48.0202 86.0221 47.724 86.1686 47.457 86.3574L47.252 87.832H45.7676V85.4102C46.2428 85.026 46.7962 84.7363 47.4277 84.541C48.0592 84.3392 48.7591 84.2383 49.5273 84.2383C50.8099 84.2383 51.8158 84.5443 52.5449 85.1562C53.2741 85.7682 53.6387 86.6439 53.6387 87.7832V92.8711C53.6387 93.0078 53.6387 93.1413 53.6387 93.2715C53.6452 93.4017 53.6549 93.5319 53.668 93.6621L54.6934 93.7695V95H51.9297C51.8711 94.7135 51.8255 94.4564 51.793 94.2285C51.7604 94.0007 51.7376 93.7728 51.7246 93.5449C51.3535 94.0202 50.888 94.4173 50.3281 94.7363C49.7747 95.0488 49.1823 95.2051 48.5508 95.2051ZM48.834 93.5938C49.472 93.5938 50.0547 93.4408 50.582 93.1348C51.1094 92.8288 51.487 92.4609 51.7148 92.0312V90.1172H49.7617C48.8763 90.1172 48.2122 90.3288 47.7695 90.752C47.3268 91.1751 47.1055 91.6471 47.1055 92.168C47.1055 92.6302 47.2487 92.985 47.5352 93.2324C47.8216 93.4733 48.2546 93.5938 48.834 93.5938ZM59.918 95.166C59.1367 95.166 58.515 94.9382 58.0527 94.4824C57.597 94.0202 57.3691 93.2845 57.3691 92.2754V85.8594H55.6992V84.4336H57.3691V81.8848H59.293V84.4336H61.5879V85.8594H59.293V92.2754C59.293 92.7832 59.3939 93.1576 59.5957 93.3984C59.7975 93.6393 60.0677 93.7598 60.4062 93.7598C60.6341 93.7598 60.888 93.7402 61.168 93.7012C61.4479 93.6556 61.666 93.6165 61.8223 93.584L62.0859 94.8438C61.806 94.9284 61.4609 95.0033 61.0508 95.0684C60.6471 95.1335 60.2695 95.166 59.918 95.166Z" fill="#324950"/>
<path d="M42 0.545453C42 0.244363 41.7479 0 41.436 0C41.1242 0 40.8721 0.244363 40.8721 0.545453V14.8281C36.7851 15.0556 33.2812 17.7414 31.5645 21.5601V0.545453C31.5645 0.244363 31.3119 0 31.0006 0C30.6893 0 30.4366 0.244363 30.4366 0.545453V21.5601C28.7199 17.7414 25.2155 15.055 21.1279 14.8276V0.545453C21.1279 0.244363 20.8753 0 20.564 0C20.2527 0 20 0.244363 20 0.545453V15.3572C20 18.5656 21.1505 21.4827 23.02 23.6454C22.2299 23.4468 21.4082 23.3383 20.564 23.3383C20.2527 23.3383 20 23.5826 20 23.8837C20 27.0932 21.1516 30.0119 23.0228 32.1752C22.2316 31.9766 21.4093 31.8681 20.564 31.8681C20.2527 31.8681 20 32.1119 20 32.4135C20 35.6219 21.151 38.539 23.0211 40.7022C22.2305 40.5037 21.4088 40.3951 20.564 40.3951C20.2527 40.3951 20 40.639 20 40.9406C20 47.5902 24.9346 53 31.0006 53C37.0659 53 42 47.5902 42 40.9406C42 40.639 41.7479 40.3951 41.436 40.3951C40.5912 40.3951 39.7695 40.5037 38.9794 40.7022C40.849 38.5395 42 35.6224 42 32.4141C42 32.1124 41.7479 31.8686 41.436 31.8686C40.5907 31.8686 39.7684 31.9772 38.9778 32.1757C40.8484 30.0124 42 27.0943 42 23.8843C42 23.5832 41.7479 23.3388 41.436 23.3388C40.5918 23.3388 39.7707 23.4474 38.9806 23.6459C40.8495 21.4832 42 18.5661 42 15.3578V0.545453ZM40.8456 15.9359C40.5828 21.4963 36.5854 25.963 31.591 26.2941C31.8538 20.7337 35.8512 16.2665 40.8456 15.9359ZM30.4366 30.0866C29.9437 28.9903 29.3031 27.9888 28.544 27.1112C29.1576 27.265 29.7892 27.3664 30.4366 27.4025V30.0866ZM30.4101 34.8212C25.4151 34.4906 21.4172 30.0233 21.1544 24.463C26.1494 24.7936 30.1473 29.2603 30.4101 34.8212ZM30.4366 38.6153C29.9431 37.5179 29.3019 36.5159 28.5423 35.6377C29.1564 35.7921 29.7886 35.8935 30.4366 35.9295V38.6153ZM30.4101 43.3493C25.4151 43.0188 21.4172 38.552 21.1544 32.9922C26.1494 33.3228 30.1473 37.789 30.4101 43.3493ZM30.4366 47.1424C29.9437 46.0455 29.3025 45.044 28.5434 44.1658C29.157 44.3202 29.7892 44.4217 30.4366 44.4577V47.1424ZM31.5645 44.4577C32.2119 44.4217 32.8441 44.3202 33.4572 44.1664C32.6981 45.044 32.0574 46.0455 31.5645 47.1418V44.4577ZM31.5645 38.6148V35.9295C32.2125 35.8935 32.8453 35.7921 33.4583 35.6377C32.6992 36.5159 32.0574 37.5179 31.5645 38.6148ZM40.8456 32.9917C40.5828 38.5515 36.5854 43.0182 31.591 43.3488C31.8538 37.789 35.8512 33.3228 40.8456 32.9917ZM31.5645 30.0861V27.4025C32.2114 27.3664 32.8436 27.265 33.456 27.1112C32.6981 27.9888 32.0569 28.9903 31.5645 30.0861ZM40.8456 24.463C40.5828 30.0233 36.5854 34.4906 31.591 34.8212C31.8538 29.2603 35.8512 24.7936 40.8456 24.463ZM30.4101 26.2941C25.4151 25.9635 21.4172 21.4963 21.1544 15.9359C26.1494 16.2665 30.1473 20.7337 30.4101 26.2941ZM21.1544 41.5188C26.1494 41.8493 30.1473 46.316 30.4101 51.8758C25.4151 51.5453 21.4172 47.0791 21.1544 41.5188ZM31.591 51.8758C31.8538 46.316 35.8512 41.8493 40.8456 41.5188C40.5828 47.0791 36.5854 51.5453 31.591 51.8758Z" fill="#324950"/>
</svg>
