<svg width="1921" height="1098" viewBox="0 0 1921 1098" fill="none" xmlns="http://www.w3.org/2000/svg">
<path fill-rule="evenodd" clip-rule="evenodd" d="M1147.15 187.436C1147.15 290.868 1063.3 374.715 959.867 374.715C856.436 374.715 772.588 290.868 772.588 187.436C772.588 84.0048 856.436 0.157043 959.867 0.157043C1063.3 0.157043 1147.15 84.0048 1147.15 187.436ZM398.029 268.16C326.993 245.557 252.727 229.412 178.461 222.954C118.069 218.641 56.2355 220.09 -5.11356 221.528H-5.11383L-5.11518 221.528C-35.6085 222.242 -65.9822 222.954 -96 222.954V281.075C-96 733.129 268.871 1098 720.925 1098H930.806V1094.77V975.3V781.563C943.722 507.102 614.369 342.425 398.029 268.16ZM1741.27 222.954C1667.01 229.412 1592.74 245.557 1521.7 268.16C1305.36 342.425 976.011 507.102 992.156 778.334V972.071V1091.54V1094.77H1202.04C1654.09 1094.77 2018.96 729.9 2018.96 277.846V222.954C1987.63 222.954 1956.29 222.231 1925.08 221.511C1863.02 220.079 1801.43 218.657 1741.27 222.954Z" fill="white"/>
</svg>
